<svg version="1.1" xmlns="http://www.w3.org/2000/svg" viewBox="0 0 75 75">
<g>
	<path fill="none" stroke="#FED700" stroke-width="3" stroke-miterlimit="10" d="M12.847,29.125
		c-0.279,0.823-0.516,1.661-0.715,2.52H2.372v11.708h9.761c0.657,2.856,1.779,5.532,3.29,7.944l-6.902,6.901L16.8,66.48l6.902-6.905
		c2.412,1.513,5.089,2.635,7.943,3.293v9.763h11.71v-9.763c2.856-0.658,5.532-1.78,7.942-3.293l6.903,6.905l8.278-8.281l-6.9-6.903
		c1.509-2.41,2.633-5.086,3.289-7.942h9.76V31.646h-9.76c-0.656-2.856-1.78-5.532-3.289-7.945l6.9-6.9l-8.278-8.282l-6.903,6.903
		c-2.41-1.511-5.086-2.635-7.942-3.291V2.37h-11.71v9.761c-2.854,0.656-5.532,1.779-7.943,3.291L16.8,8.519l-4.037,4.038"/>
	<path fill="none" stroke="#FED700" stroke-width="3" stroke-miterlimit="10" d="M44.59,50.709
		c-1.668,0.897-3.525,1.486-5.495,1.694c-0.525,0.058-1.057,0.084-1.595,0.084c-8.278,0-14.989-6.71-14.989-14.987
		c0-8.28,6.711-14.99,14.989-14.99c8.279,0,14.99,6.71,14.99,14.99c0,2.511-0.617,4.878-1.708,6.957"/>
</g>
</svg>
