<svg version="1.1" xmlns="http://www.w3.org/2000/svg" viewBox="0 0 75 75">
<g>
	<path fill="none" stroke="#FED700" stroke-width="3" stroke-miterlimit="10" d="M48.983,55.085l4.185-3.281
		c3.386-2.655,6.876-2.545,8.582-0.371l5.318,6.782c1.704,2.175,0.98,5.59-1.621,7.631l-4.185,3.281"/>
	<path fill="none" stroke="#FED700" stroke-width="3" stroke-miterlimit="10" d="M13.285,7.283
		c-10.22,8.015-7.692,28.3,5.646,45.307c13.338,17.006,32.438,24.298,42.658,16.28"/>
	<path fill="none" stroke="#FED700" stroke-width="3" stroke-miterlimit="10" d="M38.263,52.597
		c-2.405-2.104-4.711-4.529-6.843-7.245c-3.85-4.908-6.639-10.155-8.311-15.239c0,0-1.631-5.583,1.345-7.918l4.188-3.281
		c2.6-2.041,3.324-5.457,1.619-7.63L24.941,4.5c-1.705-2.176-5.196-2.285-8.582,0.37l-4.185,3.282"/>
</g>
</svg>
