<svg version="1.1" xmlns="http://www.w3.org/2000/svg" viewBox="0 0 75 75">
<g>
	<path fill="none" stroke="#FED700" stroke-width="3" stroke-miterlimit="10" d="M13.962,44.12c0-7.722,0.051-17.978,5.095-23.091
		c5.191-5.265,15.482-5.281,23.484-5.281c15.788,0,28.586,12.704,28.586,28.372c0,7.837,0.078,18.4-5.094,23.536
		c-5.178,5.132-15.597,4.841-23.492,4.841C26.76,72.497,13.962,59.791,13.962,44.12z"/>
	<path fill="none" stroke="#FED700" stroke-width="3" stroke-miterlimit="10" d="M18.833,21.945c0,0,12.35,2.472,12.04-19.445
		C26.862,4.355,11.424,9.91,18.833,21.945z"/>
	<path fill="none" stroke="#FED700" stroke-width="3" stroke-miterlimit="10" d="M18.987,22.374c0,0-4.123-10.391-15.114-1.697
		C11.528,30.363,18.987,22.374,18.987,22.374z"/>
</g>
</svg>
