<svg version="1.1" xmlns="http://www.w3.org/2000/svg" viewBox="0 0 190 65">
<path fill="#FED700" d="M10,38.436c0-6.922,0.048-16.112,4.567-20.697c4.651-4.717,13.874-4.73,21.048-4.73
	c14.147,0,25.616,11.384,25.616,25.428c0,7.021,0.068,16.49-4.567,21.091c-4.636,4.602-13.975,4.336-21.049,4.336
	C21.468,63.862,10,52.478,10,38.436z"/>
<path fill="#FED700" d="M10,38.436c0-6.922,0.048-16.112,4.567-20.697c4.651-4.717,13.874-4.73,21.048-4.73
	c14.147,0,25.616,11.384,25.616,25.428c0,7.021,0.068,16.49-4.567,21.091c-4.636,4.602-13.975,4.336-21.049,4.336
	C21.468,63.862,10,52.478,10,38.436z"/>
<path opacity="0.04" fill="#12100B" d="M61.23,38.436c0-14.044-11.469-25.428-25.616-25.428c-3.32,0-7.078,0.003-10.62,0.475
	c2.785,0.15,5.582,0.516,8.12,0.853c14.024,1.854,23.902,14.643,22.061,28.564c-0.92,6.961-2.093,16.356-7.292,20.311
	c-0.052,0.039-0.106,0.075-0.158,0.112c3.537-0.544,6.757-1.632,8.937-3.796C61.298,54.926,61.23,45.456,61.23,38.436z"/>
<path fill="#429835" d="M14.367,18.563c0,0,11.065,2.213,10.789-17.428C21.559,2.794,7.728,7.774,14.367,18.563z"/>
<path fill="#429835" d="M14.502,18.945c0,0-3.693-9.312-13.544-1.521C7.817,26.105,14.502,18.945,14.502,18.945z"/>
<path opacity="0.04" fill="#12100B" d="M14.259,19.183c0.159-0.147,0.243-0.238,0.243-0.238s-3.069-7.731-11.069-3.205
	C6.774,16.646,12.007,18.411,14.259,19.183z"/>
<path opacity="0.04" fill="#12100B" d="M14.367,18.563c0,0,0.21,0.042,0.571,0.063c1.196-4.53,3.222-11.15,5.771-15.425
	C15.665,5.843,9.488,10.635,14.367,18.563z"/>
<g>
	<path fill="#FFFFFF" d="M89.747,37.126v4.936H72.693V16.538h5.746v20.588H89.747z"/>
	<path fill="#FFFFFF" d="M93.429,16.538h5.747v25.524h-5.747V16.538z"/>
	<path fill="#FFFFFF" d="M111.845,16.538c0.443,0.81,0.953,1.811,1.532,3.001c0.578,1.191,1.182,2.48,1.81,3.867
		c0.628,1.388,1.249,2.806,1.865,4.254c0.615,1.449,1.193,2.812,1.735,4.088c0.542-1.276,1.12-2.639,1.736-4.088
		c0.614-1.449,1.236-2.867,1.864-4.254c0.628-1.387,1.23-2.676,1.81-3.867c0.578-1.19,1.09-2.191,1.533-3.001h5.229
		c0.245,1.694,0.473,3.591,0.682,5.69c0.208,2.099,0.393,4.285,0.553,6.556c0.159,2.271,0.307,4.548,0.441,6.833
		c0.135,2.283,0.252,4.433,0.35,6.445h-5.598c-0.074-2.479-0.172-5.181-0.295-8.103c-0.123-2.922-0.308-5.869-0.553-8.84
		c-0.443,1.031-0.937,2.173-1.478,3.425c-0.542,1.252-1.078,2.504-1.607,3.757s-1.04,2.45-1.533,3.591
		c-0.492,1.142-0.911,2.117-1.256,2.928h-4.015c-0.346-0.811-0.764-1.786-1.257-2.928c-0.492-1.142-1.004-2.339-1.533-3.591
		s-1.065-2.504-1.607-3.757s-1.034-2.394-1.478-3.425c-0.246,2.971-0.43,5.917-0.553,8.84c-0.123,2.922-0.221,5.623-0.294,8.103
		h-5.599c0.098-2.013,0.215-4.162,0.35-6.445c0.135-2.284,0.282-4.561,0.442-6.833c0.159-2.271,0.344-4.457,0.553-6.556
		c0.208-2.1,0.436-3.997,0.681-5.69H111.845z"/>
	<path fill="#FFFFFF" d="M148.086,42.577c-1.793,0-3.34-0.252-4.641-0.755c-1.302-0.503-2.376-1.203-3.223-2.1
		c-0.848-0.896-1.474-1.964-1.879-3.204c-0.404-1.24-0.607-2.608-0.607-4.107V16.538h5.746v15.396c0,1.031,0.116,1.91,0.35,2.633
		c0.233,0.725,0.553,1.313,0.958,1.768c0.404,0.455,0.896,0.78,1.473,0.977s1.209,0.294,1.897,0.294
		c1.399,0,2.534-0.429,3.406-1.289c0.871-0.858,1.308-2.32,1.308-4.382V16.538h5.746v15.874c0,1.499-0.209,2.873-0.626,4.125
		c-0.418,1.252-1.057,2.326-1.916,3.223s-1.952,1.59-3.277,2.081C151.475,42.331,149.903,42.577,148.086,42.577z"/>
	<path fill="#FFFFFF" d="M181.271,42.062c-1.646-2.922-3.426-5.807-5.341-8.655c-1.915-2.848-3.953-5.537-6.114-8.066v16.722h-5.672
		V16.538h4.678c0.811,0.81,1.706,1.805,2.688,2.983c0.982,1.179,1.982,2.438,3.002,3.775c1.019,1.339,2.031,2.726,3.039,4.162
		c1.006,1.437,1.952,2.817,2.836,4.144V16.538h5.709v25.524H181.271z"/>
</g>
<g opacity="0.8">
	<path fill="#FFFFFF" d="M74.35,46.501c0.971,0,1.693,0.185,2.168,0.555s0.713,0.895,0.713,1.574c0,0.39-0.069,0.721-0.208,0.995
		c-0.139,0.273-0.336,0.495-0.594,0.663c-0.258,0.169-0.573,0.291-0.946,0.366c-0.373,0.076-0.794,0.114-1.262,0.114h-0.931v2.653
		h-0.673v-6.732c0.238-0.066,0.517-0.114,0.836-0.144C73.774,46.516,74.073,46.501,74.35,46.501z M74.38,47.085
		c-0.251,0-0.464,0.009-0.639,0.025s-0.325,0.031-0.45,0.044v3.03h0.852c0.363,0,0.691-0.021,0.985-0.064
		c0.294-0.043,0.544-0.122,0.752-0.238c0.208-0.115,0.368-0.275,0.48-0.479c0.112-0.205,0.168-0.466,0.168-0.782
		c0-0.304-0.061-0.555-0.183-0.753c-0.122-0.197-0.284-0.354-0.485-0.47c-0.202-0.115-0.431-0.196-0.688-0.243
		C74.915,47.108,74.65,47.085,74.38,47.085z"/>
	<path fill="#FFFFFF" d="M77.924,50.857c0-0.448,0.064-0.84,0.193-1.173c0.128-0.334,0.297-0.612,0.505-0.837s0.445-0.391,0.713-0.5
		c0.267-0.109,0.542-0.163,0.827-0.163c0.627,0,1.127,0.204,1.5,0.613c0.373,0.409,0.559,1.04,0.559,1.892
		c0,0.053-0.001,0.105-0.005,0.158s-0.008,0.103-0.015,0.148h-3.594c0.02,0.627,0.175,1.109,0.465,1.445
		c0.291,0.337,0.752,0.505,1.386,0.505c0.35,0,0.627-0.032,0.832-0.099s0.353-0.122,0.446-0.168l0.119,0.554
		c-0.092,0.054-0.266,0.116-0.52,0.188c-0.254,0.072-0.553,0.109-0.896,0.109c-0.449,0-0.832-0.066-1.149-0.198
		c-0.316-0.132-0.578-0.317-0.782-0.555c-0.205-0.237-0.354-0.52-0.446-0.847C77.971,51.605,77.924,51.247,77.924,50.857z
		 M81.558,50.451c-0.013-0.534-0.139-0.95-0.376-1.247c-0.237-0.297-0.574-0.445-1.01-0.445c-0.231,0-0.438,0.046-0.619,0.139
		c-0.182,0.092-0.34,0.216-0.475,0.371c-0.136,0.155-0.241,0.335-0.317,0.539c-0.076,0.205-0.121,0.42-0.134,0.644H81.558z"/>
	<path fill="#FFFFFF" d="M85.4,48.204c0.211,0,0.411,0.017,0.599,0.05c0.188,0.033,0.318,0.065,0.391,0.099l-0.128,0.555
		c-0.053-0.026-0.16-0.055-0.322-0.084c-0.162-0.03-0.375-0.045-0.639-0.045c-0.277,0-0.5,0.02-0.668,0.06
		c-0.168,0.039-0.279,0.072-0.332,0.099v4.485h-0.644v-4.881c0.165-0.073,0.393-0.147,0.683-0.223
		C84.631,48.242,84.984,48.204,85.4,48.204z"/>
	<path fill="#FFFFFF" d="M89.241,45.739c0.277,0,0.503,0.021,0.678,0.063c0.175,0.043,0.289,0.081,0.342,0.114l-0.129,0.555
		c-0.073-0.033-0.18-0.067-0.322-0.104c-0.142-0.036-0.322-0.054-0.54-0.054c-0.455,0-0.78,0.115-0.975,0.346
		c-0.195,0.231-0.292,0.602-0.292,1.109v0.534h2.059v0.545h-2.059v4.574H87.36v-5.673c0-0.667,0.153-1.169,0.46-1.505
		C88.127,45.907,88.601,45.739,89.241,45.739z"/>
	<path fill="#FFFFFF" d="M90.775,50.857c0-0.448,0.064-0.84,0.193-1.173c0.128-0.334,0.297-0.612,0.505-0.837s0.445-0.391,0.713-0.5
		c0.267-0.109,0.542-0.163,0.827-0.163c0.627,0,1.127,0.204,1.5,0.613c0.373,0.409,0.559,1.04,0.559,1.892
		c0,0.053-0.001,0.105-0.005,0.158s-0.008,0.103-0.015,0.148h-3.594c0.02,0.627,0.175,1.109,0.465,1.445
		c0.291,0.337,0.752,0.505,1.386,0.505c0.35,0,0.627-0.032,0.832-0.099s0.353-0.122,0.446-0.168l0.119,0.554
		c-0.092,0.054-0.266,0.116-0.52,0.188c-0.254,0.072-0.553,0.109-0.896,0.109c-0.449,0-0.832-0.066-1.149-0.198
		c-0.316-0.132-0.578-0.317-0.782-0.555c-0.205-0.237-0.354-0.52-0.446-0.847C90.822,51.605,90.775,51.247,90.775,50.857z
		 M94.409,50.451c-0.013-0.534-0.139-0.95-0.376-1.247c-0.237-0.297-0.574-0.445-1.01-0.445c-0.231,0-0.438,0.046-0.619,0.139
		c-0.182,0.092-0.34,0.216-0.475,0.371c-0.136,0.155-0.241,0.335-0.317,0.539c-0.076,0.205-0.121,0.42-0.134,0.644H94.409z"/>
	<path fill="#FFFFFF" d="M98.627,53.531c-0.396,0-0.746-0.063-1.049-0.188c-0.305-0.125-0.557-0.306-0.758-0.54
		c-0.201-0.233-0.355-0.515-0.461-0.841c-0.105-0.327-0.158-0.688-0.158-1.085c0-0.402,0.055-0.769,0.164-1.099
		c0.108-0.33,0.266-0.614,0.469-0.852c0.205-0.237,0.453-0.421,0.744-0.55c0.289-0.128,0.617-0.192,0.98-0.192
		c0.275,0,0.535,0.022,0.775,0.069c0.242,0.046,0.428,0.105,0.561,0.178l-0.168,0.555c-0.133-0.066-0.281-0.119-0.445-0.158
		c-0.166-0.04-0.387-0.06-0.664-0.06c-0.568,0-0.998,0.183-1.293,0.55c-0.293,0.366-0.439,0.886-0.439,1.559
		c0,0.304,0.033,0.583,0.1,0.837c0.064,0.254,0.172,0.472,0.32,0.653s0.34,0.323,0.574,0.426s0.52,0.153,0.857,0.153
		c0.277,0,0.51-0.031,0.697-0.094s0.326-0.117,0.412-0.163l0.139,0.555c-0.119,0.065-0.307,0.13-0.561,0.192
		S98.904,53.531,98.627,53.531z"/>
	<path fill="#FFFFFF" d="M101.666,48.303h2.04v0.545h-2.04v2.723c0,0.291,0.025,0.526,0.074,0.708
		c0.05,0.182,0.121,0.322,0.213,0.421c0.093,0.099,0.205,0.165,0.337,0.198s0.277,0.049,0.436,0.049
		c0.271,0,0.488-0.031,0.653-0.094s0.294-0.12,0.387-0.173l0.158,0.534c-0.093,0.06-0.254,0.127-0.485,0.203
		s-0.481,0.114-0.752,0.114c-0.317,0-0.583-0.042-0.798-0.124c-0.214-0.083-0.386-0.208-0.515-0.376
		c-0.129-0.169-0.22-0.378-0.272-0.629s-0.079-0.548-0.079-0.892v-4.713l0.644-0.118V48.303z"/>
	<path fill="#FFFFFF" d="M105.687,46.759c0,0.151-0.046,0.272-0.139,0.361s-0.205,0.134-0.337,0.134s-0.244-0.045-0.336-0.134
		c-0.093-0.089-0.139-0.21-0.139-0.361c0-0.152,0.046-0.272,0.139-0.361c0.092-0.09,0.204-0.134,0.336-0.134
		s0.244,0.044,0.337,0.134C105.641,46.486,105.687,46.606,105.687,46.759z M105.538,53.422h-0.644v-5.119h0.644V53.422z"/>
	<path fill="#FFFFFF" d="M111.607,50.867c0,0.403-0.058,0.77-0.173,1.1c-0.116,0.33-0.277,0.61-0.485,0.841
		c-0.208,0.231-0.454,0.411-0.738,0.54c-0.283,0.129-0.597,0.193-0.94,0.193c-0.343,0-0.656-0.064-0.94-0.193
		s-0.529-0.309-0.737-0.54c-0.208-0.23-0.37-0.511-0.485-0.841s-0.173-0.696-0.173-1.1c0-0.402,0.058-0.769,0.173-1.099
		s0.277-0.612,0.485-0.847s0.453-0.416,0.737-0.545c0.284-0.128,0.598-0.192,0.94-0.192c0.344,0,0.657,0.064,0.94,0.192
		c0.284,0.129,0.53,0.311,0.738,0.545s0.369,0.517,0.485,0.847C111.55,50.099,111.607,50.465,111.607,50.867z M110.924,50.867
		c0-0.64-0.148-1.149-0.445-1.529s-0.699-0.569-1.208-0.569c-0.508,0-0.91,0.189-1.208,0.569c-0.297,0.38-0.445,0.89-0.445,1.529
		c0,0.641,0.148,1.148,0.445,1.525c0.298,0.376,0.7,0.563,1.208,0.563c0.509,0,0.911-0.188,1.208-0.563
		C110.775,52.016,110.924,51.508,110.924,50.867z"/>
	<path fill="#FFFFFF" d="M113.003,48.481c0.191-0.053,0.448-0.112,0.772-0.179c0.323-0.065,0.719-0.099,1.188-0.099
		c0.39,0,0.715,0.057,0.976,0.168c0.261,0.112,0.469,0.272,0.624,0.48c0.154,0.208,0.266,0.457,0.331,0.748
		c0.066,0.29,0.1,0.61,0.1,0.96v2.861h-0.644v-2.653c0-0.363-0.025-0.67-0.074-0.921c-0.05-0.251-0.133-0.455-0.248-0.614
		c-0.115-0.158-0.268-0.271-0.455-0.341c-0.188-0.069-0.425-0.104-0.708-0.104c-0.304,0-0.566,0.017-0.787,0.05
		c-0.222,0.033-0.365,0.063-0.431,0.089v4.495h-0.644V48.481z"/>
	<path fill="#FFFFFF" d="M120.895,48.481c0.191-0.053,0.44-0.112,0.747-0.179c0.308-0.065,0.705-0.099,1.193-0.099
		c0.646,0,1.115,0.188,1.406,0.564c0.032-0.026,0.097-0.071,0.192-0.134s0.217-0.127,0.361-0.193
		c0.146-0.065,0.315-0.122,0.511-0.168c0.194-0.046,0.41-0.069,0.648-0.069c0.389,0,0.704,0.058,0.945,0.173
		c0.241,0.116,0.427,0.277,0.56,0.485c0.132,0.208,0.221,0.457,0.267,0.748c0.047,0.29,0.069,0.607,0.069,0.95v2.861h-0.644v-2.653
		c0-0.337-0.015-0.629-0.044-0.876c-0.03-0.248-0.089-0.452-0.179-0.614c-0.089-0.162-0.216-0.284-0.381-0.366
		c-0.165-0.083-0.38-0.124-0.644-0.124c-0.198,0-0.378,0.019-0.54,0.055c-0.161,0.036-0.302,0.081-0.42,0.134
		c-0.119,0.053-0.217,0.105-0.293,0.158c-0.075,0.053-0.13,0.093-0.163,0.119c0.06,0.172,0.104,0.364,0.134,0.579
		s0.045,0.44,0.045,0.678v2.911h-0.644v-2.653c0-0.337-0.016-0.629-0.045-0.876c-0.029-0.248-0.091-0.452-0.184-0.614
		c-0.092-0.162-0.223-0.284-0.391-0.366c-0.168-0.083-0.391-0.124-0.668-0.124c-0.311,0-0.573,0.017-0.787,0.05
		c-0.215,0.033-0.352,0.063-0.411,0.089v4.495h-0.644V48.481z"/>
	<path fill="#FFFFFF" d="M130.993,48.185c0.336,0,0.622,0.048,0.856,0.144c0.233,0.096,0.424,0.228,0.569,0.396
		c0.145,0.169,0.25,0.368,0.316,0.6c0.066,0.23,0.099,0.481,0.099,0.752v3.228c-0.065,0.021-0.161,0.042-0.287,0.064
		c-0.125,0.023-0.271,0.048-0.436,0.074s-0.348,0.048-0.549,0.064c-0.202,0.017-0.408,0.025-0.619,0.025
		c-0.271,0-0.52-0.03-0.747-0.09c-0.229-0.06-0.426-0.153-0.595-0.282c-0.168-0.128-0.3-0.293-0.396-0.495
		c-0.096-0.201-0.144-0.446-0.144-0.737c0-0.277,0.053-0.515,0.158-0.713s0.254-0.361,0.445-0.49s0.419-0.223,0.684-0.282
		c0.264-0.06,0.551-0.089,0.861-0.089c0.092,0,0.189,0.005,0.292,0.015s0.201,0.023,0.297,0.04s0.178,0.033,0.247,0.05
		c0.069,0.016,0.117,0.031,0.144,0.044v-0.316c0-0.179-0.013-0.352-0.039-0.521c-0.026-0.168-0.084-0.319-0.174-0.455
		c-0.089-0.135-0.214-0.244-0.376-0.327c-0.162-0.082-0.374-0.123-0.639-0.123c-0.376,0-0.656,0.026-0.842,0.079
		c-0.185,0.053-0.319,0.096-0.405,0.129l-0.089-0.564c0.111-0.053,0.285-0.103,0.52-0.148
		C130.381,48.207,130.663,48.185,130.993,48.185z M131.052,52.956c0.251,0,0.471-0.008,0.659-0.024
		c0.188-0.017,0.348-0.038,0.479-0.064v-1.802c-0.072-0.033-0.188-0.067-0.346-0.104c-0.159-0.036-0.377-0.055-0.654-0.055
		c-0.158,0-0.323,0.012-0.494,0.034c-0.172,0.023-0.331,0.073-0.476,0.148c-0.146,0.076-0.265,0.181-0.356,0.313
		c-0.093,0.132-0.139,0.307-0.139,0.524c0,0.191,0.031,0.354,0.094,0.485s0.152,0.237,0.268,0.316s0.254,0.138,0.416,0.174
		C130.664,52.938,130.848,52.956,131.052,52.956z"/>
	<path fill="#FFFFFF" d="M138.547,53.264c-0.191,0.065-0.436,0.129-0.732,0.188c-0.298,0.06-0.674,0.09-1.129,0.09
		c-0.376,0-0.718-0.062-1.025-0.184c-0.307-0.122-0.57-0.299-0.792-0.529c-0.221-0.231-0.393-0.512-0.515-0.842
		s-0.183-0.703-0.183-1.119c0-0.389,0.051-0.747,0.153-1.074c0.102-0.326,0.252-0.608,0.45-0.847
		c0.198-0.237,0.44-0.422,0.728-0.554s0.615-0.198,0.985-0.198c0.337,0,0.629,0.048,0.876,0.144c0.248,0.096,0.428,0.187,0.54,0.272
		v-2.753l0.644-0.118V53.264z M137.903,49.233c-0.06-0.046-0.134-0.095-0.223-0.148c-0.09-0.053-0.193-0.102-0.313-0.148
		c-0.118-0.046-0.247-0.084-0.386-0.113c-0.139-0.03-0.284-0.045-0.436-0.045c-0.317,0-0.583,0.057-0.797,0.168
		c-0.215,0.112-0.388,0.263-0.521,0.451c-0.132,0.188-0.228,0.409-0.287,0.663c-0.059,0.254-0.089,0.523-0.089,0.807
		c0,0.674,0.169,1.19,0.505,1.55c0.337,0.359,0.782,0.539,1.337,0.539c0.316,0,0.572-0.015,0.768-0.044
		c0.194-0.03,0.341-0.062,0.44-0.094V49.233z"/>
	<path fill="#FFFFFF" d="M139.943,50.857c0-0.448,0.064-0.84,0.192-1.173c0.129-0.334,0.297-0.612,0.505-0.837
		s0.446-0.391,0.713-0.5c0.268-0.109,0.543-0.163,0.827-0.163c0.627,0,1.127,0.204,1.5,0.613s0.56,1.04,0.56,1.892
		c0,0.053-0.002,0.105-0.005,0.158c-0.004,0.053-0.009,0.103-0.016,0.148h-3.594c0.02,0.627,0.175,1.109,0.466,1.445
		c0.29,0.337,0.752,0.505,1.386,0.505c0.35,0,0.627-0.032,0.832-0.099c0.204-0.066,0.353-0.122,0.445-0.168l0.119,0.554
		c-0.093,0.054-0.267,0.116-0.521,0.188s-0.553,0.109-0.896,0.109c-0.449,0-0.832-0.066-1.148-0.198
		c-0.317-0.132-0.578-0.317-0.782-0.555c-0.205-0.237-0.354-0.52-0.445-0.847C139.989,51.605,139.943,51.247,139.943,50.857z
		 M143.576,50.451c-0.013-0.534-0.138-0.95-0.376-1.247c-0.237-0.297-0.574-0.445-1.01-0.445c-0.231,0-0.438,0.046-0.619,0.139
		c-0.182,0.092-0.34,0.216-0.475,0.371c-0.136,0.155-0.241,0.335-0.317,0.539c-0.075,0.205-0.12,0.42-0.134,0.644H143.576z"/>
	<path fill="#FFFFFF" d="M152.3,50.867c0,0.403-0.058,0.77-0.173,1.1c-0.116,0.33-0.277,0.61-0.485,0.841
		c-0.208,0.231-0.454,0.411-0.738,0.54c-0.283,0.129-0.597,0.193-0.94,0.193c-0.343,0-0.656-0.064-0.94-0.193
		s-0.529-0.309-0.737-0.54c-0.208-0.23-0.37-0.511-0.485-0.841s-0.173-0.696-0.173-1.1c0-0.402,0.058-0.769,0.173-1.099
		s0.277-0.612,0.485-0.847s0.453-0.416,0.737-0.545c0.284-0.128,0.598-0.192,0.94-0.192c0.344,0,0.657,0.064,0.94,0.192
		c0.284,0.129,0.53,0.311,0.738,0.545s0.369,0.517,0.485,0.847C152.242,50.099,152.3,50.465,152.3,50.867z M151.616,50.867
		c0-0.64-0.148-1.149-0.445-1.529s-0.699-0.569-1.208-0.569c-0.508,0-0.91,0.189-1.208,0.569c-0.297,0.38-0.445,0.89-0.445,1.529
		c0,0.641,0.148,1.148,0.445,1.525c0.298,0.376,0.7,0.563,1.208,0.563c0.509,0,0.911-0.188,1.208-0.563
		C151.468,52.016,151.616,51.508,151.616,50.867z"/>
	<path fill="#FFFFFF" d="M155.576,45.739c0.277,0,0.504,0.021,0.679,0.063c0.175,0.043,0.288,0.081,0.341,0.114l-0.128,0.555
		c-0.073-0.033-0.181-0.067-0.322-0.104c-0.142-0.036-0.321-0.054-0.539-0.054c-0.456,0-0.781,0.115-0.976,0.346
		c-0.194,0.231-0.292,0.602-0.292,1.109v0.534h2.06v0.545h-2.06v4.574h-0.644v-5.673c0-0.667,0.153-1.169,0.46-1.505
		C154.463,45.907,154.937,45.739,155.576,45.739z"/>
	<path fill="#FFFFFF" d="M163.745,53.264c-0.191,0.065-0.436,0.129-0.732,0.188c-0.298,0.06-0.674,0.09-1.129,0.09
		c-0.376,0-0.718-0.062-1.025-0.184c-0.307-0.122-0.57-0.299-0.792-0.529c-0.221-0.231-0.393-0.512-0.515-0.842
		s-0.183-0.703-0.183-1.119c0-0.389,0.051-0.747,0.153-1.074c0.102-0.326,0.252-0.608,0.45-0.847
		c0.198-0.237,0.44-0.422,0.728-0.554s0.615-0.198,0.985-0.198c0.337,0,0.629,0.048,0.876,0.144c0.248,0.096,0.428,0.187,0.54,0.272
		v-2.753l0.644-0.118V53.264z M163.102,49.233c-0.06-0.046-0.134-0.095-0.223-0.148c-0.09-0.053-0.193-0.102-0.313-0.148
		c-0.118-0.046-0.247-0.084-0.386-0.113c-0.139-0.03-0.284-0.045-0.436-0.045c-0.317,0-0.583,0.057-0.797,0.168
		c-0.215,0.112-0.388,0.263-0.521,0.451c-0.132,0.188-0.228,0.409-0.287,0.663c-0.059,0.254-0.089,0.523-0.089,0.807
		c0,0.674,0.169,1.19,0.505,1.55c0.337,0.359,0.782,0.539,1.337,0.539c0.316,0,0.572-0.015,0.768-0.044
		c0.194-0.03,0.341-0.062,0.44-0.094V49.233z"/>
	<path fill="#FFFFFF" d="M165.142,50.857c0-0.448,0.064-0.84,0.192-1.173c0.129-0.334,0.297-0.612,0.505-0.837
		s0.446-0.391,0.713-0.5c0.268-0.109,0.543-0.163,0.827-0.163c0.627,0,1.127,0.204,1.5,0.613s0.56,1.04,0.56,1.892
		c0,0.053-0.002,0.105-0.005,0.158c-0.004,0.053-0.009,0.103-0.016,0.148h-3.594c0.02,0.627,0.175,1.109,0.466,1.445
		c0.29,0.337,0.752,0.505,1.386,0.505c0.35,0,0.627-0.032,0.832-0.099c0.204-0.066,0.353-0.122,0.445-0.168l0.119,0.554
		c-0.093,0.054-0.267,0.116-0.521,0.188s-0.553,0.109-0.896,0.109c-0.449,0-0.832-0.066-1.148-0.198
		c-0.317-0.132-0.578-0.317-0.782-0.555c-0.205-0.237-0.354-0.52-0.445-0.847C165.188,51.605,165.142,51.247,165.142,50.857z
		 M168.774,50.451c-0.013-0.534-0.138-0.95-0.376-1.247c-0.237-0.297-0.574-0.445-1.01-0.445c-0.231,0-0.438,0.046-0.619,0.139
		c-0.182,0.092-0.34,0.216-0.475,0.371c-0.136,0.155-0.241,0.335-0.317,0.539c-0.075,0.205-0.12,0.42-0.134,0.644H168.774z"/>
	<path fill="#FFFFFF" d="M171.478,48.303h2.04v0.545h-2.04v2.723c0,0.291,0.025,0.526,0.074,0.708
		c0.05,0.182,0.121,0.322,0.213,0.421c0.093,0.099,0.205,0.165,0.337,0.198s0.277,0.049,0.436,0.049
		c0.271,0,0.488-0.031,0.653-0.094s0.294-0.12,0.387-0.173l0.158,0.534c-0.093,0.06-0.254,0.127-0.485,0.203
		s-0.481,0.114-0.752,0.114c-0.317,0-0.583-0.042-0.798-0.124c-0.214-0.083-0.386-0.208-0.515-0.376
		c-0.129-0.169-0.22-0.378-0.272-0.629s-0.079-0.548-0.079-0.892v-4.713l0.644-0.118V48.303z"/>
	<path fill="#FFFFFF" d="M176.261,48.185c0.336,0,0.622,0.048,0.856,0.144c0.233,0.096,0.424,0.228,0.569,0.396
		c0.145,0.169,0.25,0.368,0.316,0.6c0.066,0.23,0.099,0.481,0.099,0.752v3.228c-0.065,0.021-0.161,0.042-0.287,0.064
		c-0.125,0.023-0.271,0.048-0.436,0.074s-0.348,0.048-0.549,0.064c-0.202,0.017-0.408,0.025-0.619,0.025
		c-0.271,0-0.52-0.03-0.747-0.09c-0.229-0.06-0.426-0.153-0.595-0.282c-0.168-0.128-0.3-0.293-0.396-0.495
		c-0.096-0.201-0.144-0.446-0.144-0.737c0-0.277,0.053-0.515,0.158-0.713s0.254-0.361,0.445-0.49s0.419-0.223,0.684-0.282
		c0.264-0.06,0.551-0.089,0.861-0.089c0.092,0,0.189,0.005,0.292,0.015s0.201,0.023,0.297,0.04s0.178,0.033,0.247,0.05
		c0.069,0.016,0.117,0.031,0.144,0.044v-0.316c0-0.179-0.013-0.352-0.039-0.521c-0.026-0.168-0.084-0.319-0.174-0.455
		c-0.089-0.135-0.214-0.244-0.376-0.327c-0.162-0.082-0.374-0.123-0.639-0.123c-0.376,0-0.656,0.026-0.842,0.079
		c-0.185,0.053-0.319,0.096-0.405,0.129l-0.089-0.564c0.111-0.053,0.285-0.103,0.52-0.148
		C175.648,48.207,175.931,48.185,176.261,48.185z M176.319,52.956c0.251,0,0.471-0.008,0.659-0.024
		c0.188-0.017,0.348-0.038,0.479-0.064v-1.802c-0.072-0.033-0.188-0.067-0.346-0.104c-0.159-0.036-0.377-0.055-0.654-0.055
		c-0.158,0-0.323,0.012-0.494,0.034c-0.172,0.023-0.331,0.073-0.476,0.148c-0.146,0.076-0.265,0.181-0.356,0.313
		c-0.093,0.132-0.139,0.307-0.139,0.524c0,0.191,0.031,0.354,0.094,0.485s0.152,0.237,0.268,0.316s0.254,0.138,0.416,0.174
		C175.932,52.938,176.115,52.956,176.319,52.956z"/>
	<path fill="#FFFFFF" d="M180.537,46.759c0,0.151-0.046,0.272-0.139,0.361s-0.205,0.134-0.337,0.134s-0.244-0.045-0.336-0.134
		c-0.093-0.089-0.139-0.21-0.139-0.361c0-0.152,0.046-0.272,0.139-0.361c0.092-0.09,0.204-0.134,0.336-0.134
		s0.244,0.044,0.337,0.134C180.491,46.486,180.537,46.606,180.537,46.759z M180.389,53.422h-0.644v-5.119h0.644V53.422z"/>
	<path fill="#FFFFFF" d="M183.389,53.511c-0.218-0.007-0.407-0.034-0.569-0.084s-0.297-0.125-0.406-0.228
		c-0.108-0.103-0.191-0.234-0.247-0.396c-0.057-0.161-0.084-0.364-0.084-0.608v-6.337l0.644-0.118v6.436
		c0,0.158,0.015,0.285,0.044,0.381c0.03,0.096,0.074,0.172,0.134,0.228c0.06,0.057,0.137,0.098,0.233,0.124
		c0.095,0.026,0.209,0.049,0.341,0.069L183.389,53.511z"/>
	<path fill="#FFFFFF" d="M185.666,52.967c0.369,0,0.675-0.062,0.915-0.184c0.241-0.122,0.361-0.328,0.361-0.619
		c0-0.139-0.021-0.257-0.063-0.356c-0.043-0.099-0.114-0.188-0.213-0.267c-0.1-0.079-0.229-0.155-0.392-0.229
		c-0.162-0.072-0.361-0.158-0.599-0.257c-0.191-0.079-0.373-0.16-0.545-0.243c-0.172-0.082-0.323-0.178-0.455-0.287
		c-0.133-0.108-0.238-0.238-0.317-0.391c-0.079-0.151-0.118-0.337-0.118-0.555c0-0.416,0.156-0.752,0.47-1.01
		c0.313-0.257,0.744-0.386,1.292-0.386c0.35,0,0.639,0.029,0.866,0.089c0.229,0.06,0.388,0.112,0.48,0.158l-0.148,0.574
		c-0.079-0.039-0.213-0.092-0.401-0.158c-0.188-0.065-0.463-0.099-0.826-0.099c-0.146,0-0.282,0.015-0.411,0.044
		c-0.129,0.03-0.242,0.076-0.342,0.14c-0.099,0.063-0.178,0.142-0.237,0.237c-0.06,0.097-0.089,0.214-0.089,0.353
		s0.026,0.258,0.079,0.357c0.053,0.099,0.13,0.187,0.232,0.263s0.228,0.147,0.376,0.213s0.318,0.138,0.511,0.217
		c0.197,0.079,0.388,0.159,0.569,0.241c0.181,0.082,0.341,0.181,0.479,0.297c0.139,0.115,0.251,0.254,0.337,0.415
		c0.086,0.162,0.129,0.365,0.129,0.609c0,0.462-0.174,0.812-0.521,1.05c-0.346,0.237-0.819,0.356-1.42,0.356
		c-0.449,0-0.792-0.038-1.03-0.114c-0.237-0.076-0.396-0.134-0.475-0.173l0.168-0.585c0.02,0.014,0.063,0.035,0.129,0.064
		c0.065,0.03,0.154,0.063,0.267,0.1s0.246,0.067,0.401,0.094S185.461,52.967,185.666,52.967z"/>
</g>
</svg>
