<svg version="1.1" xmlns="http://www.w3.org/2000/svg" viewBox="0 0 80 80">
<g>
	<g>
		<path fill="none" stroke="#2B2C2C" stroke-width="2.5" stroke-miterlimit="10" d="M3.327,40c0.001,0,28.583,36.759,63.13,11.114
			c3.356-2.493,6.769-5.575,10.216-9.332"/>
		<path fill="none" stroke="#2B2C2C" stroke-width="2.5" stroke-miterlimit="10" d="M3.327,40c0,0,27.885-35.86,61.858-12.03"/>
	</g>
	<path fill="none" stroke="#2B2C2C" stroke-width="2.5" stroke-miterlimit="10" d="M52.942,50.835
		c-2.963,3.286-7.255,5.355-12.03,5.355c-8.94,0-16.187-7.249-16.187-16.19c0-8.94,7.247-16.189,16.187-16.189
		S57.102,31.06,57.102,40c0,1.067-0.104,2.11-0.302,3.119"/>
	<path fill="none" stroke="#2B2C2C" stroke-width="2.5" stroke-miterlimit="10" d="M38.937,31.172
		c0.637-0.142,1.298-0.218,1.976-0.218c4.996,0,9.044,4.051,9.044,9.045s-4.048,9.044-9.044,9.044c-4.993,0-9.045-4.05-9.045-9.044
		c0-2.157,0.757-4.139,2.019-5.694"/>
</g>
</svg>
