<svg version="1.1" xmlns="http://www.w3.org/2000/svg" viewBox="0 0 55 55">
<g>
	<g>
		<path fill="none" stroke="#2B2C2C" stroke-miterlimit="10" d="M32.603,15.525c-1.644-0.645-3.433-0.999-5.306-0.999
			c-8.027,0-14.534,6.507-14.534,14.534c0,5.307,2.847,9.947,7.093,12.484v3.866h14.883v-3.866
			c4.247-2.537,7.093-7.178,7.093-12.484c0-2.871-0.832-5.548-2.27-7.803"/>
		<polyline fill="none" stroke="#2B2C2C" stroke-miterlimit="10" points="21.218,47.598 21.218,49.429 33.376,49.429 33.376,45.431
					"/>
		<path fill="none" stroke="#2B2C2C" stroke-miterlimit="10" d="M32.155,49.429c-0.285,1.693-2.352,3.006-4.858,3.006
			c-2.506,0-4.571-1.313-4.857-3.003"/>
		<line fill="none" stroke="#2B2C2C" stroke-miterlimit="10" x1="19.855" y1="41.545" x2="31.856" y2="41.545"/>
		<polyline fill="none" stroke="#2B2C2C" stroke-miterlimit="10" points="23.734,41.545 23.734,35.41 25.987,36.25 27.323,34.572
			28.634,36.25 30.86,35.41 30.86,41.545 		"/>
		<path fill="none" stroke="#2B2C2C" stroke-miterlimit="10" d="M30.259,18.342c3.356,0.964,6.038,3.525,7.17,6.807"/>
	</g>
	<line fill="none" stroke="#2B2C2C" stroke-miterlimit="10" x1="46.076" y1="31.084" x2="54.273" y2="31.084"/>
	<line fill="none" stroke="#2B2C2C" stroke-miterlimit="10" x1="45.626" y1="22.021" x2="53.33" y2="19.216"/>
	<line fill="none" stroke="#2B2C2C" stroke-miterlimit="10" x1="38.471" y1="13.991" x2="43.74" y2="7.711"/>
	<line fill="none" stroke="#2B2C2C" stroke-miterlimit="10" x1="28.547" y1="10.764" x2="28.547" y2="2.565"/>
	<line fill="none" stroke="#2B2C2C" stroke-miterlimit="10" x1="2.369" y1="19.216" x2="10.073" y2="22.021"/>
	<line fill="none" stroke="#2B2C2C" stroke-miterlimit="10" x1="11.26" y1="7.014" x2="16.532" y2="13.292"/>
	<line fill="none" stroke="#2B2C2C" stroke-miterlimit="10" x1="0.726" y1="31.084" x2="8.924" y2="31.084"/>
</g>
</svg>
