<svg version="1.1" xmlns="http://www.w3.org/2000/svg" viewBox="0 0 55 55">
<g>
	<g>
		<path fill="none" stroke="#2B2C2C" stroke-miterlimit="10" d="M1.098,27.5c0.001,0.001,20.579,26.464,45.45,8.002
			c2.417-1.795,4.873-4.014,7.354-6.719"/>
		<path fill="none" stroke="#2B2C2C" stroke-miterlimit="10" d="M1.098,27.5c0,0,20.076-25.817,44.534-8.661"/>
	</g>
	<path fill="none" stroke="#2B2C2C" stroke-miterlimit="10" d="M36.818,35.301c-2.134,2.365-5.225,3.855-8.661,3.855
		c-6.437,0-11.654-5.219-11.654-11.657c0-6.437,5.217-11.654,11.654-11.654c6.436,0,11.655,5.218,11.655,11.654
		c0,0.769-0.074,1.52-0.218,2.247"/>
	<path fill="none" stroke="#2B2C2C" stroke-miterlimit="10" d="M26.734,21.145c0.459-0.103,0.935-0.157,1.423-0.157
		c3.596,0,6.511,2.916,6.511,6.511c0,3.596-2.915,6.511-6.511,6.511c-3.595,0-6.513-2.915-6.513-6.511
		c0-1.553,0.545-2.979,1.453-4.1"/>
</g>
</svg>
