<svg version="1.1" xmlns="http://www.w3.org/2000/svg" viewBox="0 0 100 100">
<g>
	<path fill="none" stroke="#FED700" stroke-miterlimit="10" d="M82.437,41.411c-0.203,2.722,0.488,5.572,2.043,8.783
		c-7.155,2.708-10.319,7.078-11.204,14.938c-7.84-1.051-12.847,0.961-17.213,7.243c-5.869-4.913-11.092-5.558-17.98-2.218
		c-2.708-7.152-7.075-10.318-14.935-11.203c1.047-7.843-0.965-12.848-7.245-17.21c4.914-5.87,5.557-11.095,2.214-17.983
		c7.155-2.707,10.321-7.076,11.206-14.935c7.842,1.049,12.851-0.963,17.213-7.244c5.867,4.912,11.093,5.557,17.979,2.215
		c2.709,7.153,7.078,10.32,14.937,11.208c-0.397,2.977-0.357,5.548,0.2,7.828"/>
	<path fill="none" stroke="#FED700" stroke-miterlimit="10" d="M42.465,11.093c6.374-2.179,13.562-2.018,20.178,0.996
		c13.742,6.265,19.813,22.485,13.546,36.232c-6.263,13.744-22.485,19.809-36.23,13.543C26.21,55.603,20.145,39.381,26.41,25.636
		c0.708-1.552,1.544-3.008,2.485-4.356"/>
	<polygon fill="none" stroke="#FED700" stroke-miterlimit="10" points="51.299,23.553 54.169,32.381 63.451,32.381 55.942,37.837
		58.809,46.667 51.299,41.21 43.789,46.667 46.656,37.837 39.147,32.381 48.431,32.381 	"/>
	<g>
		<line fill="none" stroke="#FED700" stroke-miterlimit="10" x1="18.688" y1="74.204" x2="25.558" y2="58.935"/>
		<line fill="none" stroke="#FED700" stroke-miterlimit="10" x1="41.16" y1="77.323" x2="38.481" y2="83.276"/>
		<polyline fill="none" stroke="#FED700" stroke-miterlimit="10" points="38.516,83.204 32.112,97.439 25.398,85.822 12.254,88.508
			18.688,74.204 		"/>
	</g>
	<g>
		<line fill="none" stroke="#FED700" stroke-miterlimit="10" x1="81.312" y1="75.182" x2="74.44" y2="59.914"/>
		<line fill="none" stroke="#FED700" stroke-miterlimit="10" x1="58.841" y1="78.299" x2="61.518" y2="84.253"/>
		<polyline fill="none" stroke="#FED700" stroke-miterlimit="10" points="61.484,84.184 67.89,98.418 74.601,86.802 87.746,89.487
			81.312,75.182 		"/>
	</g>
</g>
</svg>
