<svg version="1.1" xmlns="http://www.w3.org/2000/svg" viewBox="0 0 50 50">
<g>
	<path fill="none" stroke="#FED700" stroke-miterlimit="10" d="M8.454,19.379c-0.188,0.552-0.348,1.115-0.48,1.691H1.423v7.859
		h6.551c0.441,1.917,1.194,3.712,2.209,5.331l-4.633,4.632l5.558,5.558l4.632-4.634c1.619,1.015,3.415,1.769,5.332,2.209v6.553
		h7.858v-6.553c1.917-0.44,3.713-1.194,5.331-2.209l4.633,4.634l5.558-5.558l-4.634-4.632c1.015-1.619,1.769-3.414,2.209-5.331
		h6.551v-7.859h-6.551c-0.44-1.917-1.194-3.713-2.209-5.332l4.633-4.632l-5.557-5.558l-4.633,4.634
		c-1.618-1.014-3.414-1.769-5.331-2.208V1.423l-7.858-0.001v6.552c-1.917,0.44-3.713,1.194-5.332,2.208l-4.632-4.633l-2.709,2.71"/>
	<path fill="none" stroke="#FED700" stroke-miterlimit="10" d="M29.759,33.867c-1.12,0.601-2.366,0.996-3.689,1.137
		C25.719,35.042,25.362,35.06,25,35.06c-5.556,0-10.06-4.504-10.06-10.059c0-5.557,4.504-10.061,10.06-10.061
		c5.557,0,10.061,4.504,10.061,10.061c0,1.684-0.415,3.273-1.147,4.669"/>
</g>
</svg>
