<svg version="1.1" xmlns="http://www.w3.org/2000/svg" viewBox="0 0 50 50">
<g>
	<path fill="none" stroke="#FED700" stroke-miterlimit="10" d="M9.024,29.495c0-5.242,0.036-12.202,3.459-15.673
		c3.521-3.575,10.506-3.584,15.94-3.584c10.714,0,19.398,8.622,19.398,19.257c0,5.315,0.053,12.489-3.456,15.973
		c-3.512,3.483-10.586,3.284-15.942,3.284C17.71,48.752,9.024,40.131,9.024,29.495z"/>
	<path fill="none" stroke="#FED700" stroke-miterlimit="10" d="M12.332,14.444c0,0,8.38,1.677,8.172-13.198
		C17.779,2.503,7.305,6.274,12.332,14.444z"/>
	<path fill="none" stroke="#FED700" stroke-miterlimit="10" d="M12.434,14.734c0,0-2.797-7.052-10.257-1.152
		C7.373,20.156,12.434,14.734,12.434,14.734z"/>
</g>
</svg>
