<svg version="1.1" xmlns="http://www.w3.org/2000/svg" viewBox="0 0 50 50">
<g>
	<path fill="none" stroke="#FED700" stroke-miterlimit="10" d="M32.938,37.155l2.892-2.269c2.34-1.836,4.753-1.76,5.932-0.258
		l3.677,4.689c1.18,1.503,0.677,3.865-1.12,5.274l-2.893,2.269"/>
	<path fill="none" stroke="#FED700" stroke-miterlimit="10" d="M8.262,4.111c-7.064,5.542-5.318,19.564,3.902,31.319
		c9.22,11.756,22.422,16.796,29.487,11.253"/>
	<path fill="none" stroke="#FED700" stroke-miterlimit="10" d="M25.526,35.434c-1.662-1.453-3.257-3.129-4.728-5.006
		c-2.663-3.395-4.591-7.02-5.746-10.534c0,0-1.129-3.858,0.931-5.473l2.893-2.269c1.796-1.411,2.298-3.771,1.119-5.274l-3.676-4.689
		c-1.179-1.502-3.592-1.579-5.931,0.256L7.494,4.713"/>
</g>
</svg>
